<?xml version="1.0" encoding="utf-8"?>
<!-- Generator: Adobe Illustrator 16.0.0, SVG Export Plug-In . SVG Version: 6.00 Build 0)  -->
<!DOCTYPE svg PUBLIC "-//W3C//DTD SVG 1.1//EN" "http://www.w3.org/Graphics/SVG/1.1/DTD/svg11.dtd">
<svg version="1.1" id="圖層_1" xmlns="http://www.w3.org/2000/svg" xmlns:xlink="http://www.w3.org/1999/xlink" x="0px" y="0px"
	 width="50px" height="50px" viewBox="0 0 50 50" enable-background="new 0 0 50 50" xml:space="preserve">
<path id="menu-2-icon" fill="#015AAA" d="M-54.41,694h-7.09v-7.219h7.09V694z M-54.41,672.891h-7.09v7.22h7.09V672.891z M-54.41,659
	h-7.09v7.219h7.09V659z M-50.041,659v7.219H-21.5V659H-50.041z M-50.041,680.109H-21.5v-7.22h-28.541V680.109z M-50.041,694H-21.5
	v-7.219h-28.541V694z"/>
<g>
	<g>
		<path fill-rule="evenodd" clip-rule="evenodd" fill="#626262" d="M12.029,13.927h27.803c1.745,0,3.16-1.189,3.16-2.654
			c0-1.466-1.415-2.654-3.16-2.654H12.029c-1.745,0-3.159,1.188-3.159,2.654C8.87,12.738,10.284,13.927,12.029,13.927z
			 M39.832,20.498H12.029c-1.745,0-3.159,1.189-3.159,2.655c0,1.465,1.415,2.653,3.159,2.653h27.803c1.745,0,3.16-1.188,3.16-2.653
			C42.992,21.687,41.577,20.498,39.832,20.498z M39.832,32.377H12.029c-1.745,0-3.159,1.189-3.159,2.654
			c0,1.466,1.415,2.654,3.159,2.654h27.803c1.745,0,3.16-1.188,3.16-2.654C42.992,33.566,41.577,32.377,39.832,32.377z"/>
	</g>
</g>
</svg>
