<?xml version="1.0" encoding="utf-8"?>
<!-- Generator: Adobe Illustrator 16.0.0, SVG Export Plug-In . SVG Version: 6.00 Build 0)  -->
<!DOCTYPE svg PUBLIC "-//W3C//DTD SVG 1.1//EN" "http://www.w3.org/Graphics/SVG/1.1/DTD/svg11.dtd">
<svg version="1.1" id="圖層_1" xmlns="http://www.w3.org/2000/svg" xmlns:xlink="http://www.w3.org/1999/xlink" x="0px" y="0px"
	 width="50px" height="50px" viewBox="0 0 50 50" enable-background="new 0 0 50 50" xml:space="preserve">
<path id="menu-2-icon" fill="#015AAA" d="M-54.41,694h-7.09v-7.219h7.09V694z M-54.41,672.891h-7.09v7.221h7.09V672.891z
	 M-54.41,659h-7.09v7.219h7.09V659z M-50.041,659v7.219H-21.5V659H-50.041z M-50.041,680.109H-21.5v-7.221h-28.541V680.109z
	 M-50.041,694H-21.5v-7.219h-28.541V694z"/>
<g>
	<g>
		<path fill-rule="evenodd" clip-rule="evenodd" fill="#A6A6A7" d="M40.733,34.84L29.188,23.79l10.357-10.335
			c1.147-1.145,1.297-2.854,0.332-3.815c-0.964-0.962-2.676-0.814-3.824,0.332l-10.43,10.408L14.764,9.984
			c-1.194-1.145-2.978-1.293-3.982-0.332c-1.004,0.961-0.849,2.667,0.346,3.812l10.936,10.467l-10.95,10.927
			c-1.146,1.146-1.296,2.853-0.332,3.815c0.964,0.962,2.676,0.814,3.824-0.333l11.022-10.998l11.47,10.978
			c1.195,1.145,2.979,1.294,3.981,0.332C42.083,37.69,41.929,35.984,40.733,34.84z"/>
	</g>
</g>
</svg>
